STARTFONT 2.1
FONT -FontForge-progsole-Medium-R-Normal--10-100-75-75-C-60-ISO8859-1
SIZE 10 75 75
FONTBOUNDINGBOX 6 9 0 -2
COMMENT "Generated by fontforge, http://fontforge.sourceforge.net"
COMMENT "Modified ProggyTiny with FontForge 2.0 by TheMuffenMan"
STARTPROPERTIES 31
FOUNDRY "FontForge"
FAMILY_NAME "progsole"
WEIGHT_NAME "Medium"
SLANT "R"
SETWIDTH_NAME "Normal"
ADD_STYLE_NAME ""
PIXEL_SIZE 10
POINT_SIZE 100
RESOLUTION_X 75
RESOLUTION_Y 75
SPACING "C"
AVERAGE_WIDTH 60
CHARSET_REGISTRY "ISO8859"
CHARSET_ENCODING "1"
FONTNAME_REGISTRY ""
CHARSET_COLLECTIONS "ASCII ISOLatin1Encoding"
FONT_NAME "progsole"
FACE_NAME "progsole"
FONT_VERSION "001.000"
FONT_ASCENT 8
FONT_DESCENT 2
UNDERLINE_POSITION -1
UNDERLINE_THICKNESS 1
X_HEIGHT 4
CAP_HEIGHT 6
RAW_ASCENT 800
RAW_DESCENT 200
NORM_SPACE 6
FIGURE_WIDTH 6
AVG_LOWERCASE_WIDTH 60
AVG_UPPERCASE_WIDTH 60
ENDPROPERTIES
CHARS 95
STARTCHAR space
ENCODING 32
SWIDTH 600 0
DWIDTH 6 0
BBX 1 1 3 0
BITMAP
00
ENDCHAR
STARTCHAR exclam
ENCODING 33
SWIDTH 600 0
DWIDTH 6 0
BBX 1 7 2 0
BITMAP
80
80
80
80
80
00
80
ENDCHAR
STARTCHAR quotedbl
ENCODING 34
SWIDTH 600 0
DWIDTH 6 0
BBX 3 3 1 5
BITMAP
A0
A0
A0
ENDCHAR
STARTCHAR numbersign
ENCODING 35
SWIDTH 600 0
DWIDTH 6 0
BBX 5 6 0 0
BITMAP
50
F8
50
50
F8
50
ENDCHAR
STARTCHAR dollar
ENCODING 36
SWIDTH 600 0
DWIDTH 6 0
BBX 5 9 0 -1
BITMAP
20
70
A8
A0
70
28
A8
70
20
ENDCHAR
STARTCHAR percent
ENCODING 37
SWIDTH 600 0
DWIDTH 6 0
BBX 6 6 0 0
BITMAP
64
A8
D0
2C
54
98
ENDCHAR
STARTCHAR ampersand
ENCODING 38
SWIDTH 600 0
DWIDTH 6 0
BBX 5 7 0 0
BITMAP
60
80
80
68
90
90
68
ENDCHAR
STARTCHAR quotesingle
ENCODING 39
SWIDTH 600 0
DWIDTH 6 0
BBX 1 3 2 5
BITMAP
80
80
80
ENDCHAR
STARTCHAR parenleft
ENCODING 40
SWIDTH 600 0
DWIDTH 6 0
BBX 4 9 1 -1
BITMAP
30
40
80
80
80
80
80
40
30
ENDCHAR
STARTCHAR parenright
ENCODING 41
SWIDTH 600 0
DWIDTH 6 0
BBX 4 9 1 -1
BITMAP
C0
20
10
10
10
10
10
20
C0
ENDCHAR
STARTCHAR asterisk
ENCODING 42
SWIDTH 600 0
DWIDTH 6 0
BBX 5 5 0 0
BITMAP
20
A8
70
A8
20
ENDCHAR
STARTCHAR plus
ENCODING 43
SWIDTH 600 0
DWIDTH 6 0
BBX 5 5 0 0
BITMAP
20
20
F8
20
20
ENDCHAR
STARTCHAR comma
ENCODING 44
SWIDTH 600 0
DWIDTH 6 0
BBX 2 2 1 -1
BITMAP
40
80
ENDCHAR
STARTCHAR hyphen
ENCODING 45
SWIDTH 600 0
DWIDTH 6 0
BBX 5 1 0 2
BITMAP
F8
ENDCHAR
STARTCHAR period
ENCODING 46
SWIDTH 600 0
DWIDTH 6 0
BBX 1 1 2 0
BITMAP
80
ENDCHAR
STARTCHAR slash
ENCODING 47
SWIDTH 600 0
DWIDTH 6 0
BBX 5 9 0 -1
BITMAP
08
08
10
10
20
20
40
40
80
ENDCHAR
STARTCHAR zero
ENCODING 48
SWIDTH 600 0
DWIDTH 6 0
BBX 5 7 0 0
BITMAP
70
88
88
A8
88
88
70
ENDCHAR
STARTCHAR one
ENCODING 49
SWIDTH 600 0
DWIDTH 6 0
BBX 3 7 1 0
BITMAP
40
C0
40
40
40
40
E0
ENDCHAR
STARTCHAR two
ENCODING 50
SWIDTH 600 0
DWIDTH 6 0
BBX 5 7 0 0
BITMAP
70
88
08
10
20
40
F8
ENDCHAR
STARTCHAR three
ENCODING 51
SWIDTH 600 0
DWIDTH 6 0
BBX 5 7 0 0
BITMAP
70
88
08
30
08
88
70
ENDCHAR
STARTCHAR four
ENCODING 52
SWIDTH 600 0
DWIDTH 6 0
BBX 5 7 0 0
BITMAP
10
30
50
90
F8
10
10
ENDCHAR
STARTCHAR five
ENCODING 53
SWIDTH 600 0
DWIDTH 6 0
BBX 5 7 0 0
BITMAP
78
40
40
70
08
88
70
ENDCHAR
STARTCHAR six
ENCODING 54
SWIDTH 600 0
DWIDTH 6 0
BBX 5 7 0 0
BITMAP
30
40
80
F0
88
88
70
ENDCHAR
STARTCHAR seven
ENCODING 55
SWIDTH 600 0
DWIDTH 6 0
BBX 4 7 0 0
BITMAP
F0
10
10
20
40
40
40
ENDCHAR
STARTCHAR eight
ENCODING 56
SWIDTH 600 0
DWIDTH 6 0
BBX 5 7 0 0
BITMAP
70
88
88
70
88
88
70
ENDCHAR
STARTCHAR nine
ENCODING 57
SWIDTH 600 0
DWIDTH 6 0
BBX 5 7 0 0
BITMAP
70
88
88
78
08
10
60
ENDCHAR
STARTCHAR colon
ENCODING 58
SWIDTH 600 0
DWIDTH 6 0
BBX 1 5 2 0
BITMAP
80
80
00
80
80
ENDCHAR
STARTCHAR semicolon
ENCODING 59
SWIDTH 600 0
DWIDTH 6 0
BBX 2 6 1 -1
BITMAP
40
40
00
00
40
80
ENDCHAR
STARTCHAR less
ENCODING 60
SWIDTH 600 0
DWIDTH 6 0
BBX 5 5 0 0
BITMAP
08
30
C0
30
08
ENDCHAR
STARTCHAR equal
ENCODING 61
SWIDTH 600 0
DWIDTH 6 0
BBX 4 3 1 1
BITMAP
F0
00
F0
ENDCHAR
STARTCHAR greater
ENCODING 62
SWIDTH 600 0
DWIDTH 6 0
BBX 5 5 0 0
BITMAP
80
60
18
60
80
ENDCHAR
STARTCHAR question
ENCODING 63
SWIDTH 600 0
DWIDTH 6 0
BBX 5 8 0 -1
BITMAP
70
88
08
10
20
20
00
20
ENDCHAR
STARTCHAR at
ENCODING 64
SWIDTH 600 0
DWIDTH 6 0
BBX 5 7 0 0
BITMAP
70
88
A8
A8
B8
80
78
ENDCHAR
STARTCHAR A
ENCODING 65
SWIDTH 600 0
DWIDTH 6 0
BBX 5 7 0 0
BITMAP
20
20
50
50
70
88
88
ENDCHAR
STARTCHAR B
ENCODING 66
SWIDTH 600 0
DWIDTH 6 0
BBX 5 7 0 0
BITMAP
F0
88
88
F0
88
88
F0
ENDCHAR
STARTCHAR C
ENCODING 67
SWIDTH 600 0
DWIDTH 6 0
BBX 5 7 0 0
BITMAP
78
88
80
80
80
88
78
ENDCHAR
STARTCHAR D
ENCODING 68
SWIDTH 600 0
DWIDTH 6 0
BBX 5 7 0 0
BITMAP
E0
90
88
88
88
90
E0
ENDCHAR
STARTCHAR E
ENCODING 69
SWIDTH 600 0
DWIDTH 6 0
BBX 5 7 0 0
BITMAP
F8
80
80
F0
80
80
F8
ENDCHAR
STARTCHAR F
ENCODING 70
SWIDTH 600 0
DWIDTH 6 0
BBX 5 7 0 0
BITMAP
F8
80
80
F0
80
80
80
ENDCHAR
STARTCHAR G
ENCODING 71
SWIDTH 600 0
DWIDTH 6 0
BBX 5 7 0 0
BITMAP
70
88
80
98
88
88
78
ENDCHAR
STARTCHAR H
ENCODING 72
SWIDTH 600 0
DWIDTH 6 0
BBX 5 7 0 0
BITMAP
88
88
88
F8
88
88
88
ENDCHAR
STARTCHAR I
ENCODING 73
SWIDTH 600 0
DWIDTH 6 0
BBX 3 7 1 0
BITMAP
E0
40
40
40
40
40
E0
ENDCHAR
STARTCHAR J
ENCODING 74
SWIDTH 600 0
DWIDTH 6 0
BBX 5 7 0 0
BITMAP
38
08
08
08
08
08
F0
ENDCHAR
STARTCHAR K
ENCODING 75
SWIDTH 600 0
DWIDTH 6 0
BBX 5 7 0 0
BITMAP
88
90
A0
C0
A0
90
88
ENDCHAR
STARTCHAR L
ENCODING 76
SWIDTH 600 0
DWIDTH 6 0
BBX 5 7 0 0
BITMAP
80
80
80
80
80
88
F8
ENDCHAR
STARTCHAR M
ENCODING 77
SWIDTH 600 0
DWIDTH 6 0
BBX 5 7 0 0
BITMAP
88
88
D8
D8
A8
A8
88
ENDCHAR
STARTCHAR N
ENCODING 78
SWIDTH 600 0
DWIDTH 6 0
BBX 5 7 0 0
BITMAP
C8
C8
A8
A8
A8
98
98
ENDCHAR
STARTCHAR O
ENCODING 79
SWIDTH 600 0
DWIDTH 6 0
BBX 5 7 0 0
BITMAP
70
88
88
88
88
88
70
ENDCHAR
STARTCHAR P
ENCODING 80
SWIDTH 600 0
DWIDTH 6 0
BBX 5 7 0 0
BITMAP
F0
88
88
F0
80
80
80
ENDCHAR
STARTCHAR Q
ENCODING 81
SWIDTH 600 0
DWIDTH 6 0
BBX 5 7 0 0
BITMAP
70
88
88
88
A8
90
68
ENDCHAR
STARTCHAR R
ENCODING 82
SWIDTH 600 0
DWIDTH 6 0
BBX 5 7 0 0
BITMAP
F0
88
88
F0
88
88
88
ENDCHAR
STARTCHAR S
ENCODING 83
SWIDTH 600 0
DWIDTH 6 0
BBX 5 7 0 0
BITMAP
70
88
80
70
08
88
70
ENDCHAR
STARTCHAR T
ENCODING 84
SWIDTH 600 0
DWIDTH 6 0
BBX 5 7 0 0
BITMAP
F8
20
20
20
20
20
20
ENDCHAR
STARTCHAR U
ENCODING 85
SWIDTH 600 0
DWIDTH 6 0
BBX 5 7 0 0
BITMAP
88
88
88
88
88
88
70
ENDCHAR
STARTCHAR V
ENCODING 86
SWIDTH 600 0
DWIDTH 6 0
BBX 5 7 0 0
BITMAP
88
88
88
50
50
20
20
ENDCHAR
STARTCHAR W
ENCODING 87
SWIDTH 600 0
DWIDTH 6 0
BBX 5 7 0 0
BITMAP
88
A8
A8
A8
50
50
50
ENDCHAR
STARTCHAR X
ENCODING 88
SWIDTH 600 0
DWIDTH 6 0
BBX 5 7 0 0
BITMAP
88
88
50
20
50
88
88
ENDCHAR
STARTCHAR Y
ENCODING 89
SWIDTH 600 0
DWIDTH 6 0
BBX 5 7 0 0
BITMAP
88
88
88
70
20
20
20
ENDCHAR
STARTCHAR Z
ENCODING 90
SWIDTH 600 0
DWIDTH 6 0
BBX 5 7 0 0
BITMAP
F8
88
10
20
40
88
F8
ENDCHAR
STARTCHAR bracketleft
ENCODING 91
SWIDTH 600 0
DWIDTH 6 0
BBX 3 9 2 -1
BITMAP
E0
80
80
80
80
80
80
80
E0
ENDCHAR
STARTCHAR backslash
ENCODING 92
SWIDTH 600 0
DWIDTH 6 0
BBX 5 9 0 -1
BITMAP
80
80
40
40
20
20
10
10
08
ENDCHAR
STARTCHAR bracketright
ENCODING 93
SWIDTH 600 0
DWIDTH 6 0
BBX 3 9 1 -1
BITMAP
E0
20
20
20
20
20
20
20
E0
ENDCHAR
STARTCHAR asciicircum
ENCODING 94
SWIDTH 600 0
DWIDTH 6 0
BBX 5 3 0 4
BITMAP
20
50
88
ENDCHAR
STARTCHAR underscore
ENCODING 95
SWIDTH 600 0
DWIDTH 6 0
BBX 5 1 0 0
BITMAP
F8
ENDCHAR
STARTCHAR grave
ENCODING 96
SWIDTH 600 0
DWIDTH 6 0
BBX 2 2 1 6
BITMAP
80
40
ENDCHAR
STARTCHAR a
ENCODING 97
SWIDTH 600 0
DWIDTH 6 0
BBX 5 5 0 0
BITMAP
60
10
70
90
68
ENDCHAR
STARTCHAR b
ENCODING 98
SWIDTH 600 0
DWIDTH 6 0
BBX 5 8 0 0
BITMAP
80
80
80
B0
C8
88
C8
B0
ENDCHAR
STARTCHAR c
ENCODING 99
SWIDTH 600 0
DWIDTH 6 0
BBX 5 5 0 0
BITMAP
78
88
80
88
78
ENDCHAR
STARTCHAR d
ENCODING 100
SWIDTH 600 0
DWIDTH 6 0
BBX 5 8 0 0
BITMAP
08
08
08
68
98
88
98
68
ENDCHAR
STARTCHAR e
ENCODING 101
SWIDTH 600 0
DWIDTH 6 0
BBX 5 5 0 0
BITMAP
70
88
F8
80
78
ENDCHAR
STARTCHAR f
ENCODING 102
SWIDTH 600 0
DWIDTH 6 0
BBX 5 8 0 0
BITMAP
38
40
40
F0
40
40
40
40
ENDCHAR
STARTCHAR g
ENCODING 103
SWIDTH 600 0
DWIDTH 6 0
BBX 5 7 0 -2
BITMAP
68
98
88
88
78
08
F0
ENDCHAR
STARTCHAR h
ENCODING 104
SWIDTH 600 0
DWIDTH 6 0
BBX 5 8 0 0
BITMAP
80
80
80
B0
C8
88
88
88
ENDCHAR
STARTCHAR i
ENCODING 105
SWIDTH 600 0
DWIDTH 6 0
BBX 3 7 1 0
BITMAP
20
00
E0
20
20
20
20
ENDCHAR
STARTCHAR j
ENCODING 106
SWIDTH 600 0
DWIDTH 6 0
BBX 4 9 0 -2
BITMAP
10
00
30
10
10
10
10
10
E0
ENDCHAR
STARTCHAR k
ENCODING 107
SWIDTH 600 0
DWIDTH 6 0
BBX 4 8 1 0
BITMAP
80
80
80
90
A0
C0
A0
90
ENDCHAR
STARTCHAR l
ENCODING 108
SWIDTH 600 0
DWIDTH 6 0
BBX 3 8 1 0
BITMAP
E0
20
20
20
20
20
20
20
ENDCHAR
STARTCHAR m
ENCODING 109
SWIDTH 600 0
DWIDTH 6 0
BBX 5 5 0 0
BITMAP
F0
A8
A8
A8
A8
ENDCHAR
STARTCHAR n
ENCODING 110
SWIDTH 600 0
DWIDTH 6 0
BBX 5 5 0 0
BITMAP
B8
C8
88
88
88
ENDCHAR
STARTCHAR o
ENCODING 111
SWIDTH 600 0
DWIDTH 6 0
BBX 5 5 0 0
BITMAP
70
88
88
88
70
ENDCHAR
STARTCHAR p
ENCODING 112
SWIDTH 600 0
DWIDTH 6 0
BBX 5 7 0 -2
BITMAP
B0
C8
88
C8
B0
80
80
ENDCHAR
STARTCHAR q
ENCODING 113
SWIDTH 600 0
DWIDTH 6 0
BBX 5 7 0 -2
BITMAP
68
98
88
98
68
08
08
ENDCHAR
STARTCHAR r
ENCODING 114
SWIDTH 600 0
DWIDTH 6 0
BBX 4 5 0 0
BITMAP
B0
D0
80
80
80
ENDCHAR
STARTCHAR s
ENCODING 115
SWIDTH 600 0
DWIDTH 6 0
BBX 5 5 0 0
BITMAP
78
80
70
08
F0
ENDCHAR
STARTCHAR t
ENCODING 116
SWIDTH 600 0
DWIDTH 6 0
BBX 4 7 1 0
BITMAP
80
80
E0
80
80
80
70
ENDCHAR
STARTCHAR u
ENCODING 117
SWIDTH 600 0
DWIDTH 6 0
BBX 5 5 0 0
BITMAP
88
88
88
98
E8
ENDCHAR
STARTCHAR v
ENCODING 118
SWIDTH 600 0
DWIDTH 6 0
BBX 5 5 0 0
BITMAP
88
88
50
50
20
ENDCHAR
STARTCHAR w
ENCODING 119
SWIDTH 600 0
DWIDTH 6 0
BBX 5 5 0 0
BITMAP
88
A8
A8
50
50
ENDCHAR
STARTCHAR x
ENCODING 120
SWIDTH 600 0
DWIDTH 6 0
BBX 5 5 0 0
BITMAP
88
50
20
50
88
ENDCHAR
STARTCHAR y
ENCODING 121
SWIDTH 600 0
DWIDTH 6 0
BBX 5 7 0 -2
BITMAP
88
88
88
88
78
08
F0
ENDCHAR
STARTCHAR z
ENCODING 122
SWIDTH 600 0
DWIDTH 6 0
BBX 5 5 0 0
BITMAP
F8
10
20
40
F8
ENDCHAR
STARTCHAR braceleft
ENCODING 123
SWIDTH 600 0
DWIDTH 6 0
BBX 5 9 0 -1
BITMAP
38
20
20
E0
A0
E0
20
20
38
ENDCHAR
STARTCHAR bar
ENCODING 124
SWIDTH 600 0
DWIDTH 6 0
BBX 1 8 2 -1
BITMAP
80
80
80
80
80
80
80
80
ENDCHAR
STARTCHAR braceright
ENCODING 125
SWIDTH 600 0
DWIDTH 6 0
BBX 5 9 1 -1
BITMAP
E0
20
20
38
28
38
20
20
E0
ENDCHAR
STARTCHAR asciitilde
ENCODING 126
SWIDTH 600 0
DWIDTH 6 0
BBX 6 2 0 2
BITMAP
98
64
ENDCHAR
ENDFONT
